<svg width="202" height="39" viewBox="0 0 202 39" fill="none" xmlns="http://www.w3.org/2000/svg">
<rect width="202" height="39" rx="10" fill="#071D59"/>
<path d="M52.9528 14.0909H54.929V21.218C54.929 21.9993 54.7443 22.6864 54.375 23.2795C54.0092 23.8725 53.4943 24.3359 52.8303 24.6697C52.1662 25 51.3903 25.1651 50.5025 25.1651C49.6112 25.1651 48.8335 25 48.1694 24.6697C47.5053 24.3359 46.9904 23.8725 46.6246 23.2795C46.2589 22.6864 46.076 21.9993 46.076 21.218V14.0909H48.0522V21.0529C48.0522 21.5075 48.1516 21.9123 48.3505 22.2674C48.5529 22.6225 48.837 22.9013 49.2028 23.1037C49.5685 23.3026 50.0018 23.402 50.5025 23.402C51.0032 23.402 51.4364 23.3026 51.8022 23.1037C52.1715 22.9013 52.4556 22.6225 52.6545 22.2674C52.8533 21.9123 52.9528 21.5075 52.9528 21.0529V14.0909ZM56.4967 28.0682V16.8182H58.3931V18.1712H58.5049C58.6043 17.9723 58.7446 17.761 58.9257 17.5373C59.1068 17.31 59.3519 17.1165 59.6608 16.9567C59.9698 16.7933 60.3639 16.7116 60.8433 16.7116C61.4754 16.7116 62.0454 16.8732 62.5532 17.1964C63.0646 17.516 63.4694 17.9901 63.7677 18.6186C64.0695 19.2436 64.2205 20.0107 64.2205 20.9197C64.2205 21.8182 64.0731 22.5817 63.7783 23.2102C63.4836 23.8388 63.0823 24.3182 62.5745 24.6484C62.0667 24.9787 61.4914 25.1438 60.8487 25.1438C60.3799 25.1438 59.9911 25.0657 59.6821 24.9094C59.3732 24.7532 59.1246 24.565 58.9364 24.3448C58.7517 24.1211 58.6079 23.9098 58.5049 23.7109H58.425V28.0682H56.4967ZM58.3877 20.9091C58.3877 21.4382 58.4623 21.9016 58.6114 22.2994C58.7641 22.6971 58.9825 23.0078 59.2666 23.2315C59.5543 23.4517 59.9023 23.5618 60.3107 23.5618C60.7368 23.5618 61.0937 23.4482 61.3813 23.2209C61.669 22.9901 61.8856 22.6758 62.0312 22.2781C62.1803 21.8768 62.2549 21.4205 62.2549 20.9091C62.2549 20.4013 62.1821 19.9503 62.0365 19.5561C61.8909 19.1619 61.6743 18.853 61.3867 18.6293C61.099 18.4055 60.7404 18.2937 60.3107 18.2937C59.8987 18.2937 59.5489 18.402 59.2613 18.6186C58.9737 18.8352 58.7553 19.1388 58.6061 19.5295C58.4605 19.9201 58.3877 20.38 58.3877 20.9091ZM67.305 14.0909V25H65.3767V14.0909H67.305ZM72.3618 25.1598C71.5628 25.1598 70.8703 24.984 70.2844 24.6325C69.6984 24.2809 69.2439 23.7891 68.9207 23.157C68.6011 22.5249 68.4413 21.7862 68.4413 20.9411C68.4413 20.0959 68.6011 19.3555 68.9207 18.7198C69.2439 18.0842 69.6984 17.5906 70.2844 17.239C70.8703 16.8874 71.5628 16.7116 72.3618 16.7116C73.1608 16.7116 73.8532 16.8874 74.4392 17.239C75.0251 17.5906 75.4779 18.0842 75.7975 18.7198C76.1206 19.3555 76.2822 20.0959 76.2822 20.9411C76.2822 21.7862 76.1206 22.5249 75.7975 23.157C75.4779 23.7891 75.0251 24.2809 74.4392 24.6325C73.8532 24.984 73.1608 25.1598 72.3618 25.1598ZM72.3724 23.6151C72.8057 23.6151 73.1679 23.4961 73.4591 23.2582C73.7503 23.0167 73.9669 22.6935 74.1089 22.2887C74.2545 21.8839 74.3273 21.4329 74.3273 20.9357C74.3273 20.435 74.2545 19.9822 74.1089 19.5774C73.9669 19.169 73.7503 18.8441 73.4591 18.6026C73.1679 18.3612 72.8057 18.2404 72.3724 18.2404C71.9285 18.2404 71.5592 18.3612 71.2645 18.6026C70.9733 18.8441 70.7549 19.169 70.6093 19.5774C70.4672 19.9822 70.3962 20.435 70.3962 20.9357C70.3962 21.4329 70.4672 21.8839 70.6093 22.2887C70.7549 22.6935 70.9733 23.0167 71.2645 23.2582C71.5592 23.4961 71.9285 23.6151 72.3724 23.6151ZM79.7783 25.1651C79.2598 25.1651 78.7928 25.0728 78.3773 24.8881C77.9654 24.6999 77.6387 24.4229 77.3972 24.0572C77.1593 23.6914 77.0403 23.2404 77.0403 22.7042C77.0403 22.2425 77.1256 21.8608 77.296 21.5589C77.4665 21.2571 77.6991 21.0156 77.9938 20.8345C78.2886 20.6534 78.6206 20.5167 78.9899 20.4244C79.3628 20.3285 79.7481 20.2592 80.1458 20.2166C80.6252 20.1669 81.0141 20.1225 81.3123 20.0835C81.6106 20.0408 81.8273 19.9769 81.9622 19.8917C82.1007 19.8029 82.1699 19.6662 82.1699 19.4815V19.4496C82.1699 19.0483 82.051 18.7376 81.8131 18.5174C81.5751 18.2972 81.2324 18.1871 80.785 18.1871C80.3127 18.1871 79.9381 18.2901 79.6611 18.4961C79.3876 18.7021 79.203 18.9453 79.1071 19.2259L77.3067 18.9702C77.4487 18.473 77.6831 18.0575 78.0098 17.7237C78.3365 17.3864 78.736 17.1342 79.2083 16.9673C79.6806 16.7969 80.2026 16.7116 80.7744 16.7116C81.1685 16.7116 81.5609 16.7578 81.9516 16.8501C82.3422 16.9425 82.6991 17.0952 83.0222 17.3082C83.3454 17.5178 83.6046 17.8036 83.7999 18.1658C83.9988 18.5281 84.0982 18.9808 84.0982 19.5241V25H82.2445V23.8761H82.1806C82.0634 24.1033 81.8983 24.3164 81.6852 24.5153C81.4757 24.7106 81.2111 24.8686 80.8915 24.9893C80.5755 25.1065 80.2044 25.1651 79.7783 25.1651ZM80.279 23.7482C80.666 23.7482 81.0016 23.6719 81.2857 23.5192C81.5698 23.3629 81.7882 23.157 81.9409 22.9013C82.0971 22.6456 82.1753 22.3668 82.1753 22.065V21.1009C82.1149 21.1506 82.0119 21.1967 81.8663 21.2393C81.7243 21.282 81.5645 21.3192 81.3869 21.3512C81.2094 21.3832 81.0336 21.4116 80.8596 21.4364C80.6856 21.4613 80.5346 21.4826 80.4068 21.5004C80.1192 21.5394 79.8617 21.6033 79.6344 21.6921C79.4072 21.7809 79.2278 21.9052 79.0964 22.065C78.965 22.2212 78.8994 22.4237 78.8994 22.6722C78.8994 23.0273 79.029 23.2955 79.2882 23.4766C79.5474 23.6577 79.8777 23.7482 80.279 23.7482ZM88.5784 25.1438C87.9356 25.1438 87.3603 24.9787 86.8525 24.6484C86.3447 24.3182 85.9434 23.8388 85.6487 23.2102C85.3539 22.5817 85.2066 21.8182 85.2066 20.9197C85.2066 20.0107 85.3557 19.2436 85.654 18.6186C85.9558 17.9901 86.3624 17.516 86.8738 17.1964C87.3852 16.8732 87.9551 16.7116 88.5837 16.7116C89.0631 16.7116 89.4573 16.7933 89.7662 16.9567C90.0752 17.1165 90.3202 17.31 90.5013 17.5373C90.6824 17.761 90.8227 17.9723 90.9221 18.1712H91.002V14.0909H92.9356V25H91.0393V23.7109H90.9221C90.8227 23.9098 90.6789 24.1211 90.4906 24.3448C90.3024 24.565 90.0539 24.7532 89.7449 24.9094C89.436 25.0657 89.0471 25.1438 88.5784 25.1438ZM89.1164 23.5618C89.5247 23.5618 89.8727 23.4517 90.1604 23.2315C90.448 23.0078 90.6664 22.6971 90.8156 22.2994C90.9647 21.9016 91.0393 21.4382 91.0393 20.9091C91.0393 20.38 90.9647 19.9201 90.8156 19.5295C90.67 19.1388 90.4534 18.8352 90.1657 18.6186C89.8816 18.402 89.5318 18.2937 89.1164 18.2937C88.6867 18.2937 88.328 18.4055 88.0404 18.6293C87.7527 18.853 87.5361 19.1619 87.3905 19.5561C87.2449 19.9503 87.1721 20.4013 87.1721 20.9091C87.1721 21.4205 87.2449 21.8768 87.3905 22.2781C87.5397 22.6758 87.758 22.9901 88.0457 23.2209C88.3369 23.4482 88.6938 23.5618 89.1164 23.5618ZM97.8063 14.0909H100.225L103.463 21.9957H103.591L106.83 14.0909H109.248V25H107.352V17.5053H107.251L104.236 24.968H102.819L99.8038 17.4893H99.7026V25H97.8063V14.0909ZM113.174 25.1651C112.656 25.1651 112.189 25.0728 111.773 24.8881C111.361 24.6999 111.035 24.4229 110.793 24.0572C110.555 23.6914 110.436 23.2404 110.436 22.7042C110.436 22.2425 110.522 21.8608 110.692 21.5589C110.862 21.2571 111.095 21.0156 111.39 20.8345C111.685 20.6534 112.017 20.5167 112.386 20.4244C112.759 20.3285 113.144 20.2592 113.542 20.2166C114.021 20.1669 114.41 20.1225 114.708 20.0835C115.007 20.0408 115.223 19.9769 115.358 19.8917C115.497 19.8029 115.566 19.6662 115.566 19.4815V19.4496C115.566 19.0483 115.447 18.7376 115.209 18.5174C114.971 18.2972 114.628 18.1871 114.181 18.1871C113.709 18.1871 113.334 18.2901 113.057 18.4961C112.784 18.7021 112.599 18.9453 112.503 19.2259L110.703 18.9702C110.845 18.473 111.079 18.0575 111.406 17.7237C111.732 17.3864 112.132 17.1342 112.604 16.9673C113.077 16.7969 113.599 16.7116 114.17 16.7116C114.565 16.7116 114.957 16.7578 115.348 16.8501C115.738 16.9425 116.095 17.0952 116.418 17.3082C116.741 17.5178 117.001 17.8036 117.196 18.1658C117.395 18.5281 117.494 18.9808 117.494 19.5241V25H115.64V23.8761H115.577C115.459 24.1033 115.294 24.3164 115.081 24.5153C114.872 24.7106 114.607 24.8686 114.288 24.9893C113.971 25.1065 113.6 25.1651 113.174 25.1651ZM113.675 23.7482C114.062 23.7482 114.398 23.6719 114.682 23.5192C114.966 23.3629 115.184 23.157 115.337 22.9013C115.493 22.6456 115.571 22.3668 115.571 22.065V21.1009C115.511 21.1506 115.408 21.1967 115.262 21.2393C115.12 21.282 114.96 21.3192 114.783 21.3512C114.605 21.3832 114.43 21.4116 114.256 21.4364C114.082 21.4613 113.931 21.4826 113.803 21.5004C113.515 21.5394 113.258 21.6033 113.03 21.6921C112.803 21.7809 112.624 21.9052 112.492 22.065C112.361 22.2212 112.295 22.4237 112.295 22.6722C112.295 23.0273 112.425 23.2955 112.684 23.4766C112.943 23.6577 113.274 23.7482 113.675 23.7482ZM120.866 20.206V25H118.938V16.8182H120.781V18.2085H120.877C121.065 17.7504 121.365 17.3864 121.777 17.1165C122.193 16.8466 122.706 16.7116 123.317 16.7116C123.881 16.7116 124.373 16.8324 124.792 17.0739C125.215 17.3153 125.541 17.6651 125.772 18.1232C126.007 18.5813 126.122 19.1371 126.119 19.7905V25H124.19V20.0888C124.19 19.5419 124.048 19.114 123.764 18.805C123.484 18.4961 123.095 18.3416 122.598 18.3416C122.26 18.3416 121.96 18.4162 121.697 18.5653C121.438 18.7109 121.234 18.9222 121.085 19.1992C120.939 19.4762 120.866 19.8118 120.866 20.206ZM127.584 25V16.8182H129.512V25H127.584ZM128.553 15.657C128.248 15.657 127.985 15.5558 127.765 15.3533C127.545 15.1474 127.435 14.9006 127.435 14.6129C127.435 14.3217 127.545 14.0749 127.765 13.8725C127.985 13.6665 128.248 13.5636 128.553 13.5636C128.862 13.5636 129.125 13.6665 129.342 13.8725C129.562 14.0749 129.672 14.3217 129.672 14.6129C129.672 14.9006 129.562 15.1474 129.342 15.3533C129.125 15.5558 128.862 15.657 128.553 15.657ZM135.144 16.8182V18.3097H130.307V16.8182H135.144ZM131.517 25V16.0458C131.517 15.4954 131.63 15.0373 131.857 14.6715C132.088 14.3058 132.397 14.0323 132.784 13.8512C133.171 13.6701 133.601 13.5795 134.073 13.5795C134.407 13.5795 134.704 13.6062 134.963 13.6594C135.222 13.7127 135.414 13.7607 135.538 13.8033L135.155 15.2947C135.073 15.2699 134.97 15.245 134.846 15.2202C134.721 15.1918 134.583 15.1776 134.43 15.1776C134.072 15.1776 133.818 15.2646 133.669 15.4386C133.523 15.609 133.45 15.854 133.45 16.1737V25H131.517ZM139.474 25.1598C138.653 25.1598 137.945 24.9893 137.348 24.6484C136.755 24.304 136.299 23.8175 135.979 23.1889C135.66 22.5568 135.5 21.8129 135.5 20.957C135.5 20.1154 135.66 19.3768 135.979 18.7411C136.303 18.1019 136.754 17.6048 137.332 17.2496C137.911 16.891 138.591 16.7116 139.372 16.7116C139.877 16.7116 140.353 16.7933 140.8 16.9567C141.251 17.1165 141.649 17.3651 141.993 17.7024C142.341 18.0398 142.615 18.4695 142.814 18.9915C143.012 19.5099 143.112 20.1278 143.112 20.8452V21.4364H136.406V20.1367H141.263C141.26 19.7674 141.18 19.4389 141.024 19.1513C140.868 18.8601 140.649 18.631 140.369 18.4641C140.092 18.2972 139.768 18.2138 139.399 18.2138C139.005 18.2138 138.659 18.3097 138.36 18.5014C138.062 18.6896 137.83 18.9382 137.663 19.2472C137.499 19.5526 137.416 19.8881 137.412 20.2539V21.3885C137.412 21.8643 137.499 22.2727 137.673 22.6136C137.847 22.951 138.091 23.2102 138.403 23.3913C138.716 23.5689 139.081 23.6577 139.5 23.6577C139.781 23.6577 140.035 23.6186 140.262 23.5405C140.489 23.4588 140.686 23.3398 140.853 23.1836C141.02 23.0273 141.146 22.8338 141.232 22.603L143.032 22.8054C142.918 23.2812 142.702 23.6967 142.382 24.0518C142.066 24.4034 141.661 24.6768 141.168 24.8722C140.674 25.0639 140.109 25.1598 139.474 25.1598ZM150.715 18.9808L148.957 19.1726C148.907 18.995 148.82 18.8281 148.696 18.6719C148.575 18.5156 148.412 18.3896 148.206 18.2937C148 18.1978 147.748 18.1499 147.45 18.1499C147.048 18.1499 146.711 18.2369 146.437 18.4109C146.168 18.5849 146.034 18.8104 146.038 19.0874C146.034 19.3253 146.121 19.5188 146.299 19.668C146.48 19.8171 146.778 19.9396 147.194 20.0355L148.589 20.3338C149.364 20.5007 149.939 20.7653 150.315 21.1275C150.695 21.4897 150.887 21.9638 150.891 22.5497C150.887 23.0646 150.736 23.5192 150.438 23.9134C150.143 24.304 149.733 24.6094 149.207 24.8295C148.682 25.0497 148.078 25.1598 147.396 25.1598C146.395 25.1598 145.589 24.9503 144.978 24.5312C144.367 24.1087 144.003 23.521 143.886 22.7681L145.766 22.587C145.851 22.9563 146.033 23.2351 146.31 23.4233C146.587 23.6115 146.947 23.7056 147.391 23.7056C147.849 23.7056 148.217 23.6115 148.494 23.4233C148.774 23.2351 148.914 23.0025 148.914 22.7255C148.914 22.4911 148.824 22.2976 148.643 22.1449C148.465 21.9922 148.188 21.875 147.812 21.7933L146.416 21.5004C145.631 21.337 145.051 21.0618 144.674 20.6747C144.298 20.2841 144.111 19.7905 144.115 19.1939C144.111 18.6896 144.248 18.2528 144.525 17.8835C144.806 17.5107 145.195 17.223 145.692 17.0206C146.192 16.8146 146.769 16.7116 147.423 16.7116C148.382 16.7116 149.136 16.9158 149.687 17.3242C150.241 17.7326 150.583 18.2848 150.715 18.9808ZM156.071 16.8182V18.3097H151.368V16.8182H156.071ZM152.529 14.858H154.457V22.5391C154.457 22.7983 154.496 22.9972 154.574 23.1357C154.656 23.2706 154.763 23.3629 154.894 23.4126C155.025 23.4624 155.171 23.4872 155.331 23.4872C155.451 23.4872 155.562 23.4783 155.661 23.4606C155.764 23.4428 155.842 23.4268 155.895 23.4126L156.22 24.9201C156.117 24.9556 155.97 24.9947 155.778 25.0373C155.59 25.0799 155.359 25.1048 155.086 25.1119C154.603 25.1261 154.168 25.0533 153.781 24.8935C153.394 24.7301 153.086 24.478 152.859 24.1371C152.635 23.7962 152.525 23.37 152.529 22.8587V14.858Z" fill="white"/>
</svg>
