<svg width="239" height="46" viewBox="0 0 239 46" fill="none" xmlns="http://www.w3.org/2000/svg">
<rect x="0.5" y="0.5" width="238" height="45" rx="9.5" stroke="#FBAA41"/>
<path d="M106.414 20.7717H104.422C104.365 20.445 104.26 20.1555 104.107 19.9034C103.955 19.6477 103.765 19.4311 103.537 19.2536C103.31 19.076 103.051 18.9428 102.76 18.854C102.472 18.7617 102.161 18.7156 101.827 18.7156C101.234 18.7156 100.709 18.8647 100.251 19.163C99.7926 19.4577 99.4339 19.891 99.1747 20.4627C98.9155 21.0309 98.7859 21.7251 98.7859 22.5455C98.7859 23.38 98.9155 24.0831 99.1747 24.6548C99.4375 25.223 99.7962 25.6527 100.251 25.9439C100.709 26.2315 101.233 26.3754 101.822 26.3754C102.149 26.3754 102.454 26.3327 102.738 26.2475C103.026 26.1587 103.283 26.0291 103.511 25.8587C103.741 25.6882 103.935 25.4787 104.091 25.2301C104.251 24.9815 104.361 24.6974 104.422 24.3778L106.414 24.3885C106.339 24.907 106.178 25.3935 105.929 25.848C105.684 26.3026 105.363 26.7038 104.965 27.0518C104.567 27.3963 104.102 27.6662 103.569 27.8615C103.037 28.0533 102.445 28.1491 101.795 28.1491C100.837 28.1491 99.9808 27.9272 99.228 27.4833C98.4751 27.0394 97.8821 26.3984 97.4489 25.5604C97.0156 24.7223 96.799 23.7173 96.799 22.5455C96.799 21.37 97.0174 20.3651 97.4542 19.5305C97.891 18.6925 98.4858 18.0515 99.2386 17.6076C99.9915 17.1637 100.844 16.9418 101.795 16.9418C102.403 16.9418 102.967 17.027 103.489 17.1974C104.011 17.3679 104.477 17.6183 104.885 17.9485C105.293 18.2752 105.629 18.6765 105.892 19.1523C106.158 19.6246 106.332 20.1644 106.414 20.7717ZM109.998 28.1651C109.479 28.1651 109.012 28.0728 108.597 27.8881C108.185 27.6999 107.858 27.4229 107.617 27.0572C107.379 26.6914 107.26 26.2404 107.26 25.7042C107.26 25.2425 107.345 24.8608 107.515 24.5589C107.686 24.2571 107.918 24.0156 108.213 23.8345C108.508 23.6534 108.84 23.5167 109.209 23.4244C109.582 23.3285 109.967 23.2592 110.365 23.2166C110.845 23.1669 111.233 23.1225 111.532 23.0835C111.83 23.0408 112.047 22.9769 112.182 22.8917C112.32 22.8029 112.389 22.6662 112.389 22.4815V22.4496C112.389 22.0483 112.27 21.7376 112.032 21.5174C111.795 21.2972 111.452 21.1871 111.004 21.1871C110.532 21.1871 110.157 21.2901 109.88 21.4961C109.607 21.7021 109.422 21.9453 109.326 22.2259L107.526 21.9702C107.668 21.473 107.902 21.0575 108.229 20.7237C108.556 20.3864 108.955 20.1342 109.428 19.9673C109.9 19.7969 110.422 19.7116 110.994 19.7116C111.388 19.7116 111.78 19.7578 112.171 19.8501C112.562 19.9425 112.918 20.0952 113.242 20.3082C113.565 20.5178 113.824 20.8036 114.019 21.1658C114.218 21.5281 114.318 21.9808 114.318 22.5241V28H112.464V26.8761H112.4C112.283 27.1033 112.118 27.3164 111.905 27.5153C111.695 27.7106 111.431 27.8686 111.111 27.9893C110.795 28.1065 110.424 28.1651 109.998 28.1651ZM110.498 26.7482C110.885 26.7482 111.221 26.6719 111.505 26.5192C111.789 26.3629 112.008 26.157 112.16 25.9013C112.317 25.6456 112.395 25.3668 112.395 25.065V24.1009C112.334 24.1506 112.231 24.1967 112.086 24.2393C111.944 24.282 111.784 24.3192 111.606 24.3512C111.429 24.3832 111.253 24.4116 111.079 24.4364C110.905 24.4613 110.754 24.4826 110.626 24.5004C110.339 24.5394 110.081 24.6033 109.854 24.6921C109.627 24.7809 109.447 24.9052 109.316 25.065C109.184 25.2212 109.119 25.4237 109.119 25.6722C109.119 26.0273 109.248 26.2955 109.508 26.4766C109.767 26.6577 110.097 26.7482 110.498 26.7482ZM117.69 23.206V28H115.762V19.8182H117.605V21.2085H117.7C117.889 20.7504 118.189 20.3864 118.601 20.1165C119.016 19.8466 119.529 19.7116 120.14 19.7116C120.705 19.7116 121.197 19.8324 121.616 20.0739C122.038 20.3153 122.365 20.6651 122.596 21.1232C122.83 21.5813 122.945 22.1371 122.942 22.7905V28H121.014V23.0888C121.014 22.5419 120.872 22.114 120.588 21.805C120.307 21.4961 119.918 21.3416 119.421 21.3416C119.084 21.3416 118.784 21.4162 118.521 21.5653C118.262 21.7109 118.057 21.9222 117.908 22.1992C117.763 22.4762 117.69 22.8118 117.69 23.206ZM127.976 28.1598C127.159 28.1598 126.458 27.9805 125.872 27.6218C125.29 27.2631 124.84 26.7678 124.524 26.1357C124.212 25.5 124.056 24.7685 124.056 23.9411C124.056 23.1101 124.215 22.3768 124.535 21.7411C124.855 21.1019 125.306 20.6048 125.888 20.2496C126.474 19.891 127.166 19.7116 127.965 19.7116C128.629 19.7116 129.217 19.8342 129.729 20.0792C130.243 20.3207 130.654 20.6634 130.959 21.1072C131.264 21.5476 131.438 22.0625 131.481 22.652H129.638C129.563 22.2578 129.386 21.9293 129.105 21.6665C128.828 21.4002 128.457 21.267 127.992 21.267C127.598 21.267 127.252 21.3736 126.953 21.5866C126.655 21.7962 126.422 22.098 126.256 22.4922C126.092 22.8864 126.01 23.3587 126.01 23.9091C126.01 24.4666 126.092 24.946 126.256 25.3473C126.419 25.745 126.648 26.0522 126.943 26.2688C127.241 26.4819 127.591 26.5884 127.992 26.5884C128.276 26.5884 128.53 26.5352 128.754 26.4286C128.981 26.3185 129.171 26.1605 129.324 25.9545C129.476 25.7486 129.581 25.4982 129.638 25.2035H131.481C131.435 25.7823 131.264 26.2955 130.97 26.7429C130.675 27.1868 130.274 27.5348 129.766 27.7869C129.258 28.0355 128.661 28.1598 127.976 28.1598ZM136.192 28.1598C135.371 28.1598 134.663 27.9893 134.066 27.6484C133.473 27.304 133.017 26.8175 132.697 26.1889C132.378 25.5568 132.218 24.8129 132.218 23.957C132.218 23.1154 132.378 22.3768 132.697 21.7411C133.02 21.1019 133.471 20.6048 134.05 20.2496C134.629 19.891 135.309 19.7116 136.09 19.7116C136.595 19.7116 137.07 19.7933 137.518 19.9567C137.969 20.1165 138.367 20.3651 138.711 20.7024C139.059 21.0398 139.333 21.4695 139.531 21.9915C139.73 22.5099 139.83 23.1278 139.83 23.8452V24.4364H133.123V23.1367H137.981C137.978 22.7674 137.898 22.4389 137.742 22.1513C137.585 21.8601 137.367 21.631 137.086 21.4641C136.809 21.2972 136.486 21.2138 136.117 21.2138C135.723 21.2138 135.377 21.3097 135.078 21.5014C134.78 21.6896 134.547 21.9382 134.38 22.2472C134.217 22.5526 134.134 22.8881 134.13 23.2539V24.3885C134.13 24.8643 134.217 25.2727 134.391 25.6136C134.565 25.951 134.808 26.2102 135.121 26.3913C135.433 26.5689 135.799 26.6577 136.218 26.6577C136.499 26.6577 136.753 26.6186 136.98 26.5405C137.207 26.4588 137.404 26.3398 137.571 26.1836C137.738 26.0273 137.864 25.8338 137.949 25.603L139.75 25.8054C139.636 26.2812 139.42 26.6967 139.1 27.0518C138.784 27.4034 138.379 27.6768 137.885 27.8722C137.392 28.0639 136.827 28.1598 136.192 28.1598ZM142.894 17.0909V28H140.966V17.0909H142.894Z" fill="#FBAA41"/>
</svg>
