<svg width="239" height="46" viewBox="0 0 239 46" fill="none" xmlns="http://www.w3.org/2000/svg">
<rect width="239" height="46" rx="10" fill="#071D59"/>
<path d="M72.4137 20.7717H70.4215C70.3647 20.445 70.2599 20.1555 70.1072 19.9034C69.9545 19.6477 69.7646 19.4311 69.5373 19.2536C69.31 19.076 69.0508 18.9428 68.7596 18.854C68.4719 18.7617 68.1612 18.7156 67.8274 18.7156C67.2344 18.7156 66.7088 18.8647 66.2507 19.163C65.7926 19.4577 65.4339 19.891 65.1747 20.4627C64.9155 21.0309 64.7859 21.7251 64.7859 22.5455C64.7859 23.38 64.9155 24.0831 65.1747 24.6548C65.4375 25.223 65.7962 25.6527 66.2507 25.9439C66.7088 26.2315 67.2326 26.3754 67.8221 26.3754C68.1488 26.3754 68.4542 26.3327 68.7383 26.2475C69.0259 26.1587 69.2834 26.0291 69.5107 25.8587C69.7415 25.6882 69.935 25.4787 70.0913 25.2301C70.2511 24.9815 70.3612 24.6974 70.4215 24.3778L72.4137 24.3885C72.3391 24.907 72.1776 25.3935 71.929 25.848C71.6839 26.3026 71.3626 26.7038 70.9648 27.0518C70.5671 27.3963 70.1019 27.6662 69.5692 27.8615C69.0366 28.0533 68.4453 28.1491 67.7955 28.1491C66.8366 28.1491 65.9808 27.9272 65.228 27.4833C64.4751 27.0394 63.8821 26.3984 63.4489 25.5604C63.0156 24.7223 62.799 23.7173 62.799 22.5455C62.799 21.37 63.0174 20.3651 63.4542 19.5305C63.891 18.6925 64.4858 18.0515 65.2386 17.6076C65.9915 17.1637 66.8438 16.9418 67.7955 16.9418C68.4027 16.9418 68.9673 17.027 69.4893 17.1974C70.0114 17.3679 70.4766 17.6183 70.8849 17.9485C71.2933 18.2752 71.6289 18.6765 71.8917 19.1523C72.158 19.6246 72.332 20.1644 72.4137 20.7717ZM77.2121 28.1598C76.4131 28.1598 75.7206 27.984 75.1347 27.6325C74.5488 27.2809 74.0942 26.7891 73.7711 26.157C73.4515 25.5249 73.2917 24.7862 73.2917 23.9411C73.2917 23.0959 73.4515 22.3555 73.7711 21.7198C74.0942 21.0842 74.5488 20.5906 75.1347 20.239C75.7206 19.8874 76.4131 19.7116 77.2121 19.7116C78.0111 19.7116 78.7036 19.8874 79.2895 20.239C79.8755 20.5906 80.3282 21.0842 80.6478 21.7198C80.971 22.3555 81.1326 23.0959 81.1326 23.9411C81.1326 24.7862 80.971 25.5249 80.6478 26.157C80.3282 26.7891 79.8755 27.2809 79.2895 27.6325C78.7036 27.984 78.0111 28.1598 77.2121 28.1598ZM77.2228 26.6151C77.656 26.6151 78.0182 26.4961 78.3094 26.2582C78.6006 26.0167 78.8172 25.6935 78.9593 25.2887C79.1049 24.8839 79.1777 24.4329 79.1777 23.9357C79.1777 23.435 79.1049 22.9822 78.9593 22.5774C78.8172 22.169 78.6006 21.8441 78.3094 21.6026C78.0182 21.3612 77.656 21.2404 77.2228 21.2404C76.7789 21.2404 76.4096 21.3612 76.1148 21.6026C75.8236 21.8441 75.6052 22.169 75.4596 22.5774C75.3176 22.9822 75.2466 23.435 75.2466 23.9357C75.2466 24.4329 75.3176 24.8839 75.4596 25.2887C75.6052 25.6935 75.8236 26.0167 76.1148 26.2582C76.4096 26.4961 76.7789 26.6151 77.2228 26.6151ZM84.2025 23.206V28H82.2742V19.8182H84.1172V21.2085H84.2131C84.4013 20.7504 84.7014 20.3864 85.1133 20.1165C85.5288 19.8466 86.042 19.7116 86.6528 19.7116C87.2174 19.7116 87.7092 19.8324 88.1283 20.0739C88.5508 20.3153 88.8775 20.6651 89.1084 21.1232C89.3427 21.5813 89.4582 22.1371 89.4546 22.7905V28H87.5263V23.0888C87.5263 22.5419 87.3843 22.114 87.1002 21.805C86.8197 21.4961 86.4308 21.3416 85.9337 21.3416C85.5963 21.3416 85.2962 21.4162 85.0334 21.5653C84.7742 21.7109 84.57 21.9222 84.4209 22.1992C84.2753 22.4762 84.2025 22.8118 84.2025 23.206ZM95.0054 19.8182V21.3097H90.3019V19.8182H95.0054ZM91.4632 17.858H93.3914V25.5391C93.3914 25.7983 93.4305 25.9972 93.5086 26.1357C93.5903 26.2706 93.6968 26.3629 93.8282 26.4126C93.9596 26.4624 94.1052 26.4872 94.265 26.4872C94.3857 26.4872 94.4958 26.4783 94.5953 26.4606C94.6982 26.4428 94.7764 26.4268 94.8296 26.4126L95.1546 27.9201C95.0516 27.9556 94.9042 27.9947 94.7124 28.0373C94.5242 28.0799 94.2934 28.1048 94.02 28.1119C93.537 28.1261 93.102 28.0533 92.7149 27.8935C92.3279 27.7301 92.0207 27.478 91.7934 27.1371C91.5697 26.7962 91.4596 26.37 91.4632 25.8587V17.858ZM96.1231 28V19.8182H98.0513V28H96.1231ZM97.0925 18.657C96.7871 18.657 96.5244 18.5558 96.3042 18.3533C96.084 18.1474 95.9739 17.9006 95.9739 17.6129C95.9739 17.3217 96.084 17.0749 96.3042 16.8725C96.5244 16.6665 96.7871 16.5636 97.0925 16.5636C97.4015 16.5636 97.6643 16.6665 97.8809 16.8725C98.1011 17.0749 98.2111 17.3217 98.2111 17.6129C98.2111 17.9006 98.1011 18.1474 97.8809 18.3533C97.6643 18.5558 97.4015 18.657 97.0925 18.657ZM101.467 23.206V28H99.5392V19.8182H101.382V21.2085H101.478C101.666 20.7504 101.966 20.3864 102.378 20.1165C102.794 19.8466 103.307 19.7116 103.918 19.7116C104.482 19.7116 104.974 19.8324 105.393 20.0739C105.816 20.3153 106.143 20.6651 106.373 21.1232C106.608 21.5813 106.723 22.1371 106.72 22.7905V28H104.791V23.0888C104.791 22.5419 104.649 22.114 104.365 21.805C104.085 21.4961 103.696 21.3416 103.199 21.3416C102.861 21.3416 102.561 21.4162 102.298 21.5653C102.039 21.7109 101.835 21.9222 101.686 22.1992C101.54 22.4762 101.467 22.8118 101.467 23.206ZM113.4 24.5589V19.8182H115.328V28H113.458V26.5458H113.373C113.188 27.0039 112.885 27.3786 112.462 27.6697C112.043 27.9609 111.526 28.1065 110.912 28.1065C110.376 28.1065 109.902 27.9876 109.49 27.7496C109.081 27.5082 108.762 27.1584 108.531 26.7003C108.3 26.2386 108.185 25.6811 108.185 25.0277V19.8182H110.113V24.7294C110.113 25.2479 110.255 25.6598 110.539 25.9652C110.823 26.2706 111.196 26.4233 111.658 26.4233C111.942 26.4233 112.217 26.354 112.483 26.2156C112.75 26.0771 112.968 25.8711 113.139 25.5977C113.313 25.3207 113.4 24.9744 113.4 24.5589ZM120.438 28.1598C119.618 28.1598 118.909 27.9893 118.313 27.6484C117.72 27.304 117.263 26.8175 116.944 26.1889C116.624 25.5568 116.464 24.8129 116.464 23.957C116.464 23.1154 116.624 22.3768 116.944 21.7411C117.267 21.1019 117.718 20.6048 118.297 20.2496C118.875 19.891 119.556 19.7116 120.337 19.7116C120.841 19.7116 121.317 19.7933 121.764 19.9567C122.215 20.1165 122.613 20.3651 122.957 20.7024C123.306 21.0398 123.579 21.4695 123.778 21.9915C123.977 22.5099 124.076 23.1278 124.076 23.8452V24.4364H117.37V23.1367H122.228C122.224 22.7674 122.144 22.4389 121.988 22.1513C121.832 21.8601 121.613 21.631 121.333 21.4641C121.056 21.2972 120.733 21.2138 120.363 21.2138C119.969 21.2138 119.623 21.3097 119.325 21.5014C119.026 21.6896 118.794 21.9382 118.627 22.2472C118.464 22.5526 118.38 22.8881 118.377 23.2539V24.3885C118.377 24.8643 118.464 25.2727 118.638 25.6136C118.812 25.951 119.055 26.2102 119.367 26.3913C119.68 26.5689 120.046 26.6577 120.465 26.6577C120.745 26.6577 120.999 26.6186 121.226 26.5405C121.454 26.4588 121.651 26.3398 121.818 26.1836C121.984 26.0273 122.111 25.8338 122.196 25.603L123.996 25.8054C123.883 26.2812 123.666 26.6967 123.346 27.0518C123.03 27.4034 122.625 27.6768 122.132 27.8722C121.638 28.0639 121.074 28.1598 120.438 28.1598ZM130.5 17.0909V28H128.523V17.0909H130.5ZM132.059 28V19.8182H133.902V21.2085H133.998C134.169 20.7397 134.451 20.3739 134.845 20.1112C135.239 19.8448 135.71 19.7116 136.257 19.7116C136.811 19.7116 137.278 19.8466 137.658 20.1165C138.041 20.3828 138.311 20.7468 138.467 21.2085H138.553C138.734 20.7539 139.039 20.3917 139.469 20.1218C139.902 19.8484 140.415 19.7116 141.008 19.7116C141.761 19.7116 142.375 19.9496 142.851 20.4254C143.327 20.9013 143.565 21.5955 143.565 22.5082V28H141.631V22.8065C141.631 22.2987 141.496 21.9276 141.227 21.6932C140.957 21.4553 140.626 21.3363 140.236 21.3363C139.771 21.3363 139.407 21.4819 139.144 21.7731C138.885 22.0607 138.755 22.4354 138.755 22.897V28H136.864V22.7266C136.864 22.304 136.736 21.9666 136.48 21.7145C136.228 21.4624 135.898 21.3363 135.49 21.3363C135.213 21.3363 134.961 21.4073 134.733 21.5494C134.506 21.6879 134.325 21.8849 134.19 22.1406C134.055 22.3928 133.988 22.6875 133.988 23.0249V28H132.059ZM145.026 31.0682V19.8182H146.923V21.1712H147.034C147.134 20.9723 147.274 20.761 147.455 20.5373C147.636 20.31 147.881 20.1165 148.19 19.9567C148.499 19.7933 148.893 19.7116 149.373 19.7116C150.005 19.7116 150.575 19.8732 151.083 20.1964C151.594 20.516 151.999 20.9901 152.297 21.6186C152.599 22.2436 152.75 23.0107 152.75 23.9197C152.75 24.8182 152.603 25.5817 152.308 26.2102C152.013 26.8388 151.612 27.3182 151.104 27.6484C150.596 27.9787 150.021 28.1438 149.378 28.1438C148.909 28.1438 148.521 28.0657 148.212 27.9094C147.903 27.7532 147.654 27.565 147.466 27.3448C147.281 27.1211 147.137 26.9098 147.034 26.7109H146.955V31.0682H145.026ZM146.917 23.9091C146.917 24.4382 146.992 24.9016 147.141 25.2994C147.294 25.6971 147.512 26.0078 147.796 26.2315C148.084 26.4517 148.432 26.5618 148.84 26.5618C149.266 26.5618 149.623 26.4482 149.911 26.2209C150.198 25.9901 150.415 25.6758 150.561 25.2781C150.71 24.8768 150.784 24.4205 150.784 23.9091C150.784 23.4013 150.712 22.9503 150.566 22.5561C150.42 22.1619 150.204 21.853 149.916 21.6293C149.629 21.4055 149.27 21.2937 148.84 21.2937C148.428 21.2937 148.078 21.402 147.791 21.6186C147.503 21.8352 147.285 22.1388 147.136 22.5295C146.99 22.9201 146.917 23.38 146.917 23.9091ZM157.475 28.1598C156.676 28.1598 155.984 27.984 155.398 27.6325C154.812 27.2809 154.357 26.7891 154.034 26.157C153.714 25.5249 153.555 24.7862 153.555 23.9411C153.555 23.0959 153.714 22.3555 154.034 21.7198C154.357 21.0842 154.812 20.5906 155.398 20.239C155.984 19.8874 156.676 19.7116 157.475 19.7116C158.274 19.7116 158.967 19.8874 159.553 20.239C160.138 20.5906 160.591 21.0842 160.911 21.7198C161.234 22.3555 161.396 23.0959 161.396 23.9411C161.396 24.7862 161.234 25.5249 160.911 26.157C160.591 26.7891 160.138 27.2809 159.553 27.6325C158.967 27.984 158.274 28.1598 157.475 28.1598ZM157.486 26.6151C157.919 26.6151 158.281 26.4961 158.572 26.2582C158.864 26.0167 159.08 25.6935 159.222 25.2887C159.368 24.8839 159.441 24.4329 159.441 23.9357C159.441 23.435 159.368 22.9822 159.222 22.5774C159.08 22.169 158.864 21.8441 158.572 21.6026C158.281 21.3612 157.919 21.2404 157.486 21.2404C157.042 21.2404 156.673 21.3612 156.378 21.6026C156.087 21.8441 155.868 22.169 155.723 22.5774C155.581 22.9822 155.51 23.435 155.51 23.9357C155.51 24.4329 155.581 24.8839 155.723 25.2887C155.868 25.6935 156.087 26.0167 156.378 26.2582C156.673 26.4961 157.042 26.6151 157.486 26.6151ZM162.537 28V19.8182H164.407V21.1818H164.492C164.641 20.7095 164.897 20.3455 165.259 20.0898C165.625 19.8306 166.042 19.701 166.511 19.701C166.617 19.701 166.736 19.7063 166.868 19.717C167.003 19.7241 167.115 19.7365 167.203 19.7543V21.5281C167.122 21.4996 166.992 21.4748 166.815 21.4535C166.641 21.4286 166.472 21.4162 166.309 21.4162C165.957 21.4162 165.641 21.4925 165.36 21.6452C165.083 21.7944 164.865 22.0021 164.705 22.2685C164.545 22.5348 164.465 22.842 164.465 23.19V28H162.537ZM172.515 19.8182V21.3097H167.811V19.8182H172.515ZM168.972 17.858H170.901V25.5391C170.901 25.7983 170.94 25.9972 171.018 26.1357C171.099 26.2706 171.206 26.3629 171.337 26.4126C171.469 26.4624 171.614 26.4872 171.774 26.4872C171.895 26.4872 172.005 26.4783 172.104 26.4606C172.207 26.4428 172.285 26.4268 172.339 26.4126L172.664 27.9201C172.561 27.9556 172.413 27.9947 172.222 28.0373C172.033 28.0799 171.803 28.1048 171.529 28.1119C171.046 28.1261 170.611 28.0533 170.224 27.8935C169.837 27.7301 169.53 27.478 169.303 27.1371C169.079 26.7962 168.969 26.37 168.972 25.8587V17.858Z" fill="white"/>
</svg>
