<svg width="20" height="22" viewBox="0 0 20 22" fill="none" xmlns="http://www.w3.org/2000/svg">
<path d="M1 4C1 2.34315 2.34315 1 4 1H10.5C15.1944 1 19 4.80558 19 9.5V18C19 19.6569 17.6569 21 16 21H4C2.34315 21 1 19.6569 1 18V4Z" fill="#FBAA41"/>
<path d="M8.5 1.5H13.5L19 6V21M18 6.5H19M18 7.5H19M18 8.5H19M13 1.5H11M5 13H15M5 17H15M4 21H16C17.6569 21 19 19.6569 19 18V9.5C19 4.80558 15.1944 1 10.5 1H4C2.34315 1 1 2.34315 1 4V18C1 19.6569 2.34315 21 4 21Z" stroke="white" stroke-width="2"/>
</svg>
