<svg width="18" height="24" viewBox="0 0 18 24" fill="none" xmlns="http://www.w3.org/2000/svg">
<path d="M0 3C0 1.34315 1.34315 0 3 0H10C14.4183 0 18 3.58172 18 8V21C18 22.6569 16.6569 24 15 24H3C1.34315 24 0 22.6569 0 21V3Z" fill="#FBAA41"/>
<path d="M2 5C2 3.34315 3.34315 2 5 2H15V20C15 21.6569 13.6569 23 12 23H5C3.34315 23 2 21.6569 2 20V5Z" fill="white"/>
<path d="M5.5 15L2 18.5V22.5H16.5V15L13 12L8.5 16.5L5.5 15Z" fill="#FBAA41"/>
<path d="M9 8.5C9 9.88071 7.88071 11 6.5 11C5.11929 11 4 9.88071 4 8.5C4 7.11929 5.11929 6 6.5 6C7.88071 6 9 7.11929 9 8.5Z" fill="#FBAA41"/>
<path d="M11 4.38462V1.92308L11.4615 1L15 1.92308L17 4.69231L11.9231 5V4.38462H11Z" fill="#FBAA41"/>
</svg>
